Coordinates
version=1
nRows=15
nColumns=26
inDegrees=yes

Units are S.I. units (second, meters, Newtons, ...)
If the header above contains a line with 'inDegrees', this indicates whether rotational values are in degrees (yes) or radians (no).

endheader
time	pelvis_tilt	pelvis_list	pelvis_rotation	pelvis_tx	pelvis_ty	pelvis_tz	hip_flexion_r	hip_adduction_r	hip_rotation_r	knee_angle_r	knee_angle_r_beta	hip_flexion_l	hip_adduction_l	hip_rotation_l	knee_angle_l	knee_angle_l_beta	lumbar_extension	lumbar_bending	lumbar_rotation	ankle_angle_r	subtalar_angle_r	mtp_angle_r	ankle_angle_l	subtalar_angle_l	mtp_angle_l
      4.53333333	     -0.71455044	     -3.20351792	     -5.38743206	      0.57071843	      0.88734090	     -0.34284638	     -6.50490246	      1.62868467	    -12.13969264	     15.24143951	      0.26601330	     21.47356043	     -8.05220592	    -14.59006920	      3.58496263	      0.06256940	    -12.27084324	      3.81452041	      8.04481602	     21.86337270	      0.50416932	      0.00000000	     10.25307580	      0.53732345	      0.00000000
      4.54000000	     -0.53605177	     -3.06655440	     -5.40782618	      0.57863275	      0.88661533	     -0.34372855	     -6.83111622	      1.24217844	    -12.25082766	     16.05447373	      0.28020343	     21.53989024	     -7.91310276	    -14.47670161	      4.55655017	      0.07952680	    -12.38013215	      3.51266444	      8.03400037	     21.69478344	      0.14661872	      0.00000000	      9.92902638	      0.11112118	      0.00000000
      4.54666667	     -0.37062587	     -2.88328319	     -5.40967785	      0.58659115	      0.88592153	     -0.34465756	     -7.08774065	      0.79508248	    -12.36822402	     16.98282959	      0.29640629	     21.64131009	     -7.72685509	    -14.39686157	      5.66072593	      0.09879831	    -12.46076805	      3.14928974	      7.98465082	     21.44257747	     -0.34243091	      0.00000000	      9.58184276	     -0.47352617	      0.00000000
      4.55333333	     -0.47740354	     -2.64968007	     -5.41844159	      0.59456533	      0.88495965	     -0.34579356	     -6.97337035	      0.31877831	    -12.31946968	     18.05434357	      0.31510774	     22.00424320	     -7.46795462	    -14.05360535	      6.75646624	      0.11792258	    -12.21124826	      2.79114537	      7.93348886	     21.03671482	     -1.30844024	      0.00000000	      9.04915009	     -1.88708137	      0.00000000
      4.56000000	     -0.20303601	     -2.45370900	     -5.36791822	      0.60265036	      0.88456240	     -0.34691785	     -7.30406705	     -0.15996321	    -12.40624062	     19.07060152	      0.33284479	     21.97467104	     -7.24109024	    -13.96265346	      7.98738211	      0.13940612	    -12.41235913	      2.42514091	      7.84123656	     20.56679517	     -1.81603670	      0.00000000	      8.62465986	     -2.43557048	      0.00000000
      4.56666667	     -0.24553280	     -2.17394586	     -5.33456181	      0.61069261	      0.88388440	     -0.34824900	     -7.18820539	     -0.70090689	    -12.31511382	     20.25199801	      0.35346405	     22.22359767	     -6.89065384	    -13.53767057	      9.12042472	      0.15918144	    -12.23218594	      2.03061028	      7.72137192	     19.80493590	     -3.02526965	      0.00000000	      7.98856265	     -3.93496772	      0.00000000
      4.57333333	     -0.12041925	     -1.91865970	     -5.26016985	      0.61878882	      0.88351751	     -0.34959989	     -7.23730337	     -1.22745619	    -12.27629172	     21.47362885	      0.37478553	     22.28351811	     -6.55035981	    -13.17011100	     10.28257446	      0.17946478	    -12.24864816	      1.62206669	      7.58869806	     18.94382330	     -4.06475700	      0.00000000	      7.37833920	     -5.11708443	      0.00000000
      4.58000000	      0.09244375	     -1.63518687	     -5.16916878	      0.62693398	      0.88334995	     -0.35102382	     -7.33686413	     -1.81872279	    -12.31169621	     22.76192283	      0.39727050	     22.23666426	     -6.17368862	    -12.90259940	     11.47786794	      0.20032659	    -12.36306012	      1.18677241	      7.42953450	     18.07388786	     -4.79490799	      0.00000000	      6.98487647	     -5.83149145	      0.00000000
      4.58666667	      0.08302137	     -1.31805691	     -5.07648275	      0.63501840	      0.88305621	     -0.35264898	     -7.10103965	     -2.41974498	    -12.21150788	     24.20141653	      0.42239440	     22.35312921	     -5.71160407	    -12.35118073	     12.52182574	      0.21854709	    -12.22433621	      0.77323744	      7.24124256	     16.82190685	     -6.17531166	      0.00000000	      6.35243924	     -7.24852915	      0.00000000
      4.59333333	      0.21168877	     -1.04743436	     -4.96424019	      0.64310370	      0.88304286	     -0.35424918	     -6.98960602	     -2.97862867	    -12.14102099	     25.66003383	      0.44785208	     22.30312774	     -5.29154642	    -11.86546357	     13.56792345	      0.23680494	    -12.25862671	      0.38465078	      7.07146885	     15.53316048	     -7.38663580	      0.00000000	      5.80274376	     -8.40169538	      0.00000000
      4.60000000	      0.30063471	     -0.72460030	     -4.84366187	      0.65114427	      0.88310767	     -0.35599263	     -6.75152953	     -3.61554059	    -12.10445053	     27.23633315	      0.47536369	     22.25328147	     -4.78948299	    -11.36178016	     14.53769872	      0.25373071	    -12.24254383	     -0.03666307	      6.86349737	     14.11159401	     -8.52112467	      0.00000000	      5.43148118	     -9.36039289	      0.00000000
      4.60666667	      0.39310909	     -0.39475785	     -4.71565516	      0.65918601	      0.88328937	     -0.35778560	     -6.46167135	     -4.26843515	    -12.08502320	     28.88027236	      0.50405584	     22.14899000	     -4.26317212	    -10.86601231	     15.42963731	      0.26929797	    -12.23556327	     -0.45854400	      6.64382727	     12.60282163	     -9.58311955	      0.00000000	      5.19598019	    -10.18953916	      0.00000000
      4.61333333	      0.49275991	     -0.03690928	     -4.59965899	      0.66724258	      0.88360095	     -0.35961022	     -6.11339380	     -4.97843813	    -12.09936245	     30.60306475	      0.53412424	     21.96929955	     -3.69492947	    -10.38340665	     16.21986395	      0.28309003	    -12.23049081	     -0.91630393	      6.37411951	     11.05358124	    -10.41448035	      0.00000000	      5.19662260	    -10.79482778	      0.00000000
      4.62000000	      0.62787170	      0.30254229	     -4.45484522	      0.67521945	      0.88404232	     -0.36151369	     -5.75348243	     -5.68104081	    -12.17940819	     32.37889327	      0.56511830	     21.74458056	     -3.13680803	    -10.00976681	     16.98871149	      0.29650895	    -12.28609176	     -1.32468820	      6.13466266	      9.50602522	    -11.13520667	      0.00000000	      5.28480242	    -11.31468731	      0.00000000
      4.62666667	      0.67026485	      0.74143847	     -4.30894326	      0.68313306	      0.88447500	     -0.36351110	     -5.22395451	     -6.48801418	    -12.22300227	     34.18511054	      0.59664273	     21.57822713	     -2.45241230	     -9.59181695	     17.69254001	      0.30879308	    -12.25238118	     -1.81824671	      5.91753448	      7.72919447	    -11.99612654	      0.00000000	      5.45728369	    -11.88800119	      0.00000000
